<?xml version="1.0" encoding="UTF-8"?>
<svg version="1.1" xmlns="http://www.w3.org/2000/svg" width="695" height="695">
<path d="M0 0 C1.02583191 -0.00979385 2.05166382 -0.01958771 3.10858154 -0.02967834 C95.24942258 -0.72768869 180.82086844 28.57923463 249.359375 90.98828125 C251.11201363 92.58309934 252.8762631 94.16519995 254.6484375 95.73828125 C259.37049044 99.95279381 263.84637661 104.16141396 267.9140625 109.01171875 C269.85371494 111.26345377 271.88367097 113.41269359 273.93237305 115.56494141 C281.56679048 123.63089596 288.24260614 132.31012235 294.83203125 141.23828125 C295.28320312 141.84285156 295.734375 142.44742188 296.19921875 143.0703125 C336.1028175 196.63787082 361.56103261 265.69068303 362.0703125 332.74609375 C362.08010635 333.81782333 362.08990021 334.88955292 362.09999084 335.99375916 C362.27435236 360.03861316 362.06341362 383.51806621 357.83203125 407.23828125 C357.61772461 408.44581055 357.40341797 409.65333984 357.18261719 410.89746094 C354.0238948 428.06123191 349.42724966 444.71721214 343.83203125 461.23828125 C343.49864746 462.22715332 343.16526367 463.21602539 342.82177734 464.23486328 C334.82619044 487.56402856 324.12013797 510.43950551 310.83203125 531.23828125 C310.44660156 531.84671875 310.06117188 532.45515625 309.6640625 533.08203125 C299.01733674 549.77722912 287.12578676 565.5677461 273.83203125 580.23828125 C273.31366699 580.81304199 272.79530273 581.38780273 272.26123047 581.97998047 C263.27502936 591.91802614 254.05673861 601.55896024 243.83203125 610.23828125 C242.92324219 611.03621094 242.01445313 611.83414063 241.078125 612.65625 C232.10775553 620.47671971 222.58297228 627.42684949 212.83203125 634.23828125 C212.19539551 634.68558594 211.55875977 635.13289062 210.90283203 635.59375 C168.34941369 665.32739356 118.93977781 684.01129725 67.83203125 692.23828125 C66.87506348 692.40199219 65.9180957 692.56570313 64.93212891 692.734375 C48.12998495 695.50940918 31.25412631 695.54975173 14.26953125 695.61328125 C13.15838959 695.62122711 12.04724792 695.62917297 10.9024353 695.63735962 C-9.96496881 695.75183703 -30.68803304 694.1329875 -51.16796875 689.98828125 C-52.21936035 689.77993652 -53.27075195 689.5715918 -54.35400391 689.35693359 C-87.61086997 682.55158884 -119.16836152 671.09756539 -149.16796875 655.23828125 C-150.20002441 654.6983252 -150.20002441 654.6983252 -151.25292969 654.14746094 C-186.10817672 635.79678086 -219.44947647 610.19853875 -245.16796875 580.23828125 C-246.14547965 579.14435152 -247.12477852 578.05201792 -248.10546875 576.9609375 C-264.87171546 558.1702516 -279.0776189 537.35206192 -291.07958984 515.234375 C-292.16284988 513.24766929 -293.26766705 511.27414919 -294.375 509.30078125 C-318.68603438 465.41074836 -333.14329304 412.02041213 -333.37109375 361.859375 C-333.37810806 360.81704712 -333.38512238 359.77471924 -333.39234924 358.70080566 C-333.40973914 355.35908629 -333.41620076 352.0175442 -333.41796875 348.67578125 C-333.41864349 347.53311798 -333.41931824 346.39045471 -333.42001343 345.21316528 C-333.40419518 328.36229989 -333.00912359 311.88678917 -330.16796875 295.23828125 C-329.99104492 294.1704541 -329.81412109 293.10262695 -329.63183594 292.00244141 C-318.20894096 224.56001224 -288.55743258 162.56183388 -242.16796875 112.23828125 C-241.37648438 111.34367187 -240.585 110.4490625 -239.76953125 109.52734375 C-228.25385992 96.62840859 -215.63280846 84.88821601 -201.81787109 74.48974609 C-200.17532605 73.24386182 -198.55432981 71.97434125 -196.9375 70.6953125 C-167.71365911 47.64941206 -134.27004188 30.3680879 -99.16796875 18.23828125 C-98.3466748 17.95259277 -97.52538086 17.6669043 -96.67919922 17.37255859 C-77.67986131 10.84804988 -58.18002564 6.51819685 -38.35546875 3.42578125 C-37.68391754 3.32055145 -37.01236633 3.21532166 -36.32046509 3.10690308 C-24.21922562 1.23122117 -12.24627194 0.09780433 0 0 Z " fill="#BD4F4F" transform="translate(333.16796875,-0.23828125)"/>
<path d="M0 0 C10.23 0 20.46 0 31 0 C31 1.32 31 2.64 31 4 C34.63 4 38.26 4 42 4 C43.09672021 15.89355804 44.15576459 27.77051227 44.65795898 39.70629883 C44.68962158 40.42068115 44.72128418 41.13506348 44.75390625 41.87109375 C44.77783447 42.47880615 44.8017627 43.08651855 44.82641602 43.71264648 C44.97504589 45.67117428 45.21482786 47.62241638 45.47265625 49.56958008 C46.13041222 54.70391503 46.4007226 59.84923747 46.68359375 65.015625 C46.80786657 67.17708771 46.93221817 69.3385459 47.05664062 71.5 C47.24668315 74.85603907 47.43539169 78.21214508 47.62231445 81.56835938 C48.41697215 95.75641992 49.44249423 109.87410851 51 124 C51.75878567 114.77154297 52.50799441 105.54232034 53.25 96.3125 C53.33394327 95.26842546 53.33394327 95.26842546 53.41958237 94.20325851 C55.22868103 71.66737775 56.85807939 49.12401974 58.3125 26.5625 C58.35605118 25.8870023 58.39960236 25.21150459 58.44447327 24.51553726 C58.97061708 16.34415511 59.48654851 8.17219714 60 0 C71.88 0 83.76 0 96 0 C96 1.32 96 2.64 96 4 C99.96 4 103.92 4 108 4 C108.10022461 5.43867432 108.20044922 6.87734863 108.30371094 8.35961914 C110.15093105 34.85684416 112.00988335 61.35320209 113.9276123 87.84542847 C114.09987327 90.2263558 114.27167234 92.6073166 114.44299316 94.98831177 C114.68323191 98.32434373 114.92532351 101.66023607 115.16796875 104.99609375 C115.23761337 105.96670746 115.307258 106.93732117 115.37901306 107.93734741 C115.820637 113.96966646 116.36695876 119.98475738 117 126 C119.87155199 88.42136008 119.87155199 88.42136008 122.27636719 50.81103516 C123.26402279 33.8562806 124.65426258 16.9293768 126 0 C135.24 0 144.48 0 154 0 C154 1.32 154 2.64 154 4 C157.63 4 161.26 4 165 4 C165.29537634 14.42022081 164.78110277 24.72856587 164.0625 35.125 C163.97564941 36.3936792 163.88879883 37.6623584 163.79931641 38.96948242 C163.40921421 44.37935621 162.89819184 49.65043494 162 55 C161.88804512 56.42895991 161.80390538 57.86050221 161.75390625 59.29296875 C161.70459961 60.48889648 161.70459961 60.48889648 161.65429688 61.70898438 C161.59498247 63.31047324 161.53755803 64.91203372 161.48242188 66.51367188 C161.23917567 72.31027479 160.69571595 78.04118663 160.05859375 83.8046875 C158.9903473 93.54221364 158.29861382 103.28756077 157.68164062 113.06283569 C157.49467836 116.02172083 157.30269295 118.98024436 157.109375 121.9387207 C156.85298945 125.8633688 156.59774751 129.78808727 156.34375 133.71289062 C155.25027044 150.5701998 153.98455256 167.39928706 152.4380188 184.22134399 C150.81303214 202.02510243 149.6418134 219.8631562 148.44580078 237.69995117 C148.36492722 238.88897537 148.28405365 240.07799957 148.20072937 241.30305481 C148.05100501 243.50582089 147.90374963 245.70875728 147.75984192 247.91191101 C147.07297772 257.97823452 146.00593314 267.94066861 145 278 C131.47 278 117.94 278 104 278 C104 276.68 104 275.36 104 274 C100.37 274 96.74 274 93 274 C89.77079934 245.57209802 89.77079934 245.57209802 89.29125977 233.59619141 C89.17092416 230.66058786 88.9711254 227.80897301 88.53173828 224.90209961 C87.89769967 220.24928093 87.57718251 215.61422847 87.28125 210.9296875 C87.18704773 209.49255905 87.18704773 209.49255905 87.09094238 208.02639771 C86.89143445 204.97609005 86.69554896 201.92556378 86.5 198.875 C86.24070945 194.87232217 85.97995406 190.86974087 85.71875 186.8671875 C85.65671387 185.91309998 85.59467773 184.95901245 85.53076172 183.97601318 C85.07278832 176.97955351 84.56884506 169.98842883 84 163 C83.91435791 164.30670654 83.82871582 165.61341309 83.74047852 166.9597168 C83.42139625 171.81475963 83.09794935 176.66950358 82.77319336 181.52416992 C82.63333261 183.62402597 82.49465042 185.72396087 82.35717773 187.82397461 C82.15919969 190.84510533 81.95696381 193.86592571 81.75390625 196.88671875 C81.6934462 197.82335861 81.63298615 198.75999847 81.57069397 199.72502136 C81.11346992 206.4365393 81.11346992 206.4365393 80.47998047 209.58227539 C79.74305216 213.29427999 79.71133874 217.02142889 79.56640625 220.796875 C79.0414209 232.64734773 78.0004813 244.4375721 76.9375 256.25 C76.298125 263.4275 75.65875 270.605 75 278 C60.48 278 45.96 278 31 278 C31 276.68 31 275.36 31 274 C27.37 274 23.74 274 20 274 C18.99989142 268.76825207 18.63920336 263.57899697 18.31640625 258.2734375 C18.19206607 256.33333277 18.06771679 254.39322862 17.94335938 252.453125 C17.75377405 249.43723762 17.56538008 246.42127906 17.37768555 243.40527344 C16.7410336 233.23570719 16.06417458 223.08760266 14.99609375 212.953125 C13.95734836 203.090362 13.29075278 193.21777048 12.68164062 183.32022095 C12.36930878 178.25590077 12.0433894 173.19244988 11.71875 168.12890625 C11.6559082 167.14510483 11.59306641 166.16130341 11.52832031 165.14768982 C10.37504685 147.16678738 8.85712291 129.21911007 7.30123901 111.26947021 C6.40904585 100.96888217 5.57421628 90.66735272 4.84423828 80.35375977 C4.28218916 72.52357646 3.64599665 64.70157284 2.98828125 56.87890625 C2.71018062 53.53495712 2.43265311 50.19096082 2.15524292 46.84695435 C1.97130405 44.65016384 1.78464615 42.45359897 1.59500122 40.2572937 C0.43232557 26.77953892 -0.19898735 13.53113992 0 0 Z " fill="#031526" transform="translate(344,194)"/>
<path d="M0 0 C15.18 0 30.36 0 46 0 C46 1.32 46 2.64 46 4 C49.96 4 53.92 4 58 4 C58.18792114 5.81975342 58.18792114 5.81975342 58.37963867 7.67626953 C58.9807646 13.49266819 59.58374251 19.30887396 60.1875 25.125 C60.35498245 26.73846313 60.35498245 26.73846313 60.52584839 28.38452148 C62.15849669 44.09489437 63.83969484 59.79927952 65.5625 75.5 C67.8465808 96.31987839 69.96046256 117.15485479 72 138 C74.01673 125.46349114 75.20949354 112.83846666 76.48693848 100.21032715 C77.14412856 93.71512263 77.81001101 87.22081211 78.4765625 80.7265625 C78.60760376 79.4487793 78.73864502 78.17099609 78.87365723 76.85449219 C79.94163753 66.47963487 81.07468529 56.11317958 82.25 45.75 C83.58547559 33.965337 84.80172687 22.17792681 85.76635742 10.35644531 C86.10937728 6.89685526 86.56878658 3.44970737 87 0 C102.51 0 118.02 0 134 0 C134 1.32 134 2.64 134 4 C137.63 4 141.26 4 145 4 C145 94.42 145 184.84 145 278 C135.1 278 125.2 278 115 278 C115 276.68 115 275.36 115 274 C111.04 274 107.08 274 103 274 C102.67 243.31 102.34 212.62 102 181 C97.77168288 217.33595772 97.77168288 217.33595772 93.6875 253.6875 C93.42133273 256.093111 93.15505638 258.49870992 92.88867188 260.90429688 C92.25768562 266.60270838 91.62886104 272.30135204 91 278 C81.76 278 72.52 278 63 278 C63 276.68 63 275.36 63 274 C59.37 274 55.74 274 52 274 C50.81609657 270.44828971 50.49888035 266.9756651 50.1328125 263.2734375 C50.05364594 262.50263351 49.97447937 261.73182953 49.89291382 260.93766785 C49.72288772 259.28086164 49.55428713 257.62390865 49.38696289 255.96682739 C48.94541176 251.59817692 48.49271225 247.23068975 48.0390625 242.86328125 C47.94937195 241.99877853 47.8596814 241.13427582 47.76727295 240.24357605 C47.08111304 233.67374824 46.31329227 227.11799316 45.5 220.5625 C43.45067623 203.39941346 41.76356907 186.19479839 40 169 C39.67 204.97 39.34 240.94 39 278 C29.76 278 20.52 278 11 278 C11 276.68 11 275.36 11 274 C7.37 274 3.74 274 0 274 C0 183.58 0 93.16 0 0 Z " fill="#031526" transform="translate(193,194)"/>
<path d="M0 0 C3.63 0 7.26 0 11 0 C11.29537634 10.42022081 10.78110277 20.72856587 10.0625 31.125 C9.97564941 32.3936792 9.88879883 33.6623584 9.79931641 34.96948242 C9.40921421 40.37935621 8.89819184 45.65043494 8 51 C7.88804512 52.42895991 7.80390538 53.86050221 7.75390625 55.29296875 C7.72103516 56.09025391 7.68816406 56.88753906 7.65429688 57.70898438 C7.59498247 59.31047324 7.53755803 60.91203372 7.48242188 62.51367188 C7.23917567 68.31027479 6.69571595 74.04118663 6.05859375 79.8046875 C4.9903473 89.54221364 4.29861382 99.28756077 3.68164062 109.06283569 C3.49467836 112.02172083 3.30269295 114.98024436 3.109375 117.9387207 C2.85298945 121.8633688 2.59774751 125.78808727 2.34375 129.71289062 C1.25027044 146.5701998 -0.01544744 163.39928706 -1.5619812 180.22134399 C-3.18696786 198.02510243 -4.3581866 215.8631562 -5.55419922 233.69995117 C-5.63507278 234.88897537 -5.71594635 236.07799957 -5.79927063 237.30305481 C-5.94899499 239.50582089 -6.09625037 241.70875728 -6.24015808 243.91191101 C-6.92702228 253.97823452 -7.99406686 263.94066861 -9 274 C-22.53 274 -36.06 274 -50 274 C-50 272.68 -50 271.36 -50 270 C-40.1 270 -30.2 270 -20 270 C-20.04125 267.628125 -20.0825 265.25625 -20.125 262.8125 C-20.17102052 255.41326283 -19.62388436 248.17668009 -18.84985352 240.82373047 C-18.03366624 232.87275881 -17.52782033 224.91567906 -17.0625 216.9375 C-16.3297363 204.47584154 -15.37664565 192.04436333 -14.30453491 179.60754395 C-13.2678446 167.56299568 -12.38439536 155.51742025 -11.64648438 143.45068359 C-11.57494141 142.3055127 -11.50339844 141.1603418 -11.4296875 139.98046875 C-11.37022949 138.98942139 -11.31077148 137.99837402 -11.24951172 136.97729492 C-11.07475215 134.89197897 -10.82349079 132.81232353 -10.51586914 130.74243164 C-9.89154702 126.21321548 -9.59456722 121.70214435 -9.31640625 117.140625 C-9.19210856 115.19921547 -9.06775781 113.25780933 -8.94335938 111.31640625 C-8.75351074 108.30265027 -8.56491166 105.28882238 -8.37768555 102.27490234 C-7.70090467 91.44102994 -6.91453254 80.65376748 -5.70877075 69.86524963 C-4.79348502 61.49001315 -4.35551823 53.09977543 -3.9375 44.6875 C-3.82096088 42.38021923 -3.70286863 40.07305756 -3.58070374 37.7660675 C-3.47193711 35.70841159 -3.36847384 33.65047728 -3.26538086 31.5925293 C-3.02464928 28.33368374 -2.56092137 25.21555676 -2 22 C-1.87824441 20.54112954 -1.78229559 19.07975011 -1.71875 17.6171875 C-1.68136719 16.84246094 -1.64398438 16.06773437 -1.60546875 15.26953125 C-1.53481281 13.66537967 -1.46450363 12.06121279 -1.39453125 10.45703125 C-1.35714844 9.68488281 -1.31976563 8.91273438 -1.28125 8.1171875 C-1.25095703 7.42222168 -1.22066406 6.72725586 -1.18945312 6.01123047 C-1 4 -1 4 0 0 Z " fill="#402C75" transform="translate(498,198)"/>
<path d="M0 0 C3.63 0 7.26 0 11 0 C11 90.42 11 180.84 11 274 C1.1 274 -8.8 274 -19 274 C-19 272.68 -19 271.36 -19 270 C-12.73 270 -6.46 270 0 270 C0 180.9 0 91.8 0 0 Z " fill="#402B77" transform="translate(327,198)"/>
<path d="M0 0 C0.33 0 0.66 0 1 0 C1.88211495 56.13531502 1.86583931 111.27282781 -5.91992188 166.93896484 C-7.20352105 176.26970961 -8.24135534 185.62602218 -9.265625 194.98828125 C-9.35410454 195.79659079 -9.44258408 196.60490032 -9.53374481 197.43770409 C-10.02742054 201.95796006 -10.51447656 206.47884886 -11 211 C-20.24 211 -29.48 211 -39 211 C-39 209.68 -39 208.36 -39 207 C-33.39 207 -27.78 207 -22 207 C-22.03738281 205.38480469 -22.07476562 203.76960937 -22.11328125 202.10546875 C-22.10961957 193.77026122 -21.13269696 185.58189836 -20.1875 177.3125 C-20.01960979 175.79628724 -19.85229041 174.28001117 -19.68554688 172.76367188 C-18.95295198 166.15188772 -18.19199223 159.54380926 -17.38500977 152.94067383 C-15.6416152 138.66987485 -14.02463373 124.38698374 -12.44140625 110.09765625 C-12.32591116 109.05535418 -12.21041607 108.0130521 -12.09142113 106.93916512 C-11.12535411 98.21632843 -10.16210579 89.49318077 -9.19897461 80.77001953 C-8.36442756 73.21241993 -7.52880107 65.65494087 -6.69140625 58.09765625 C-6.57602131 57.0561504 -6.46063637 56.01464455 -6.34175491 54.94157791 C-4.30964591 36.6178741 -2.19437788 18.30496987 0 0 Z " fill="#3F2B75" transform="translate(295,261)"/>
<path d="M0 0 C0.66 0 1.32 0 2 0 C2.12060791 1.74966064 2.12060791 1.74966064 2.24365234 3.53466797 C2.48339216 7.01098523 2.72462974 10.48719597 2.96630859 13.96337891 C3.24253767 17.94189219 3.51296279 21.92074772 3.77978516 25.89990234 C4.57197648 37.92762013 4.57197648 37.92762013 5.75 49.921875 C7.92683328 69.20677827 6.17969797 88.40682814 4.82421875 107.70703125 C4.75737381 108.67045944 4.69052887 109.63388763 4.62165833 110.62651062 C4.555327 111.52424698 4.48899567 112.42198334 4.4206543 113.34692383 C4.36354782 114.12787918 4.30644135 114.90883453 4.24760437 115.7134552 C4 118 4 118 3.48895264 120.54014587 C3.05057827 122.74554759 2.83633456 124.76935507 2.75610352 127.01074219 C2.72491928 127.7717926 2.69373505 128.53284302 2.66160583 129.31695557 C2.61448204 130.54451569 2.61448204 130.54451569 2.56640625 131.796875 C2.0414209 143.64734773 1.0004813 155.4375721 -0.0625 167.25 C-0.701875 174.4275 -1.34125 181.605 -2 189 C-16.52 189 -31.04 189 -46 189 C-46 187.68 -46 186.36 -46 185 C-35.44 185 -24.88 185 -14 185 C-14 182.03 -14 179.06 -14 176 C-13.78288952 173.25568377 -13.53448052 170.53833903 -13.23046875 167.8046875 C-13.06335592 166.21033316 -12.89671174 164.61592965 -12.73046875 163.02148438 C-12.59777588 161.76791138 -12.59777588 161.76791138 -12.46240234 160.48901367 C-10.74692957 144.17678726 -9.46346426 127.87298582 -8.5 111.5 C-7.58310458 95.96781373 -6.35580117 80.51527137 -4.74377441 65.04031372 C-2.50380308 43.40740115 -1.2556229 21.70867844 0 0 Z " fill="#402B75" transform="translate(421,283)"/>
<path d="M0 0 C0.33 0 0.66 0 1 0 C2.00138152 8.33316778 3.00117214 16.66652576 4 25 C4.13045715 26.08810974 4.26091431 27.17621948 4.39532471 28.29730225 C5.16088462 34.68674074 5.92243946 41.07664097 6.67993164 47.46704102 C6.93563133 49.61952005 7.19247314 51.7718637 7.45043945 53.92407227 C7.8357635 57.14044761 8.2170533 60.35728171 8.59765625 63.57421875 C8.70916519 64.49780685 8.82067413 65.42139496 8.93556213 66.37297058 C9.31234694 69.57986462 9.65773781 72.7892293 10 76 C10.12688831 77.11778713 10.12688831 77.11778713 10.25634003 78.25815582 C12.00268776 93.83797169 12.19197385 109.20386078 11.9765625 124.8671875 C11.95031477 127.3692222 11.92505464 129.87126743 11.90072632 132.37332153 C11.8348637 138.88006187 11.75581074 145.38657371 11.67376709 151.89312744 C11.59206608 158.5640817 11.52317575 165.23516501 11.453125 171.90625 C11.31443978 184.93766573 11.16059645 197.96883586 11 211 C1.76 211 -7.48 211 -17 211 C-17 209.68 -17 208.36 -17 207 C-11.39 207 -5.78 207 0 207 C0 138.69 0 70.38 0 0 Z " fill="#3E2B76" transform="translate(221,261)"/>
<path d="M0 0 C3.63 0 7.26 0 11 0 C12.09672021 11.89355804 13.15576459 23.77051227 13.65795898 35.70629883 C13.68962158 36.42068115 13.72128418 37.13506348 13.75390625 37.87109375 C13.77783447 38.47880615 13.8017627 39.08651855 13.82641602 39.71264648 C13.97504589 41.67117428 14.21482786 43.62241638 14.47265625 45.56958008 C15.13041222 50.70391503 15.4007226 55.84923747 15.68359375 61.015625 C15.80786657 63.17708771 15.93221817 65.3385459 16.05664062 67.5 C16.24668315 70.85603907 16.43539169 74.21214508 16.62231445 77.56835938 C17.41697215 91.75641992 18.44249423 105.87410851 20 120 C20.33 120 20.66 120 21 120 C21.09423822 125.74567583 20.73992444 131.27881717 20.09765625 136.984375 C18.85272631 148.71840661 18.13958497 160.47315064 17.4375 172.25 C17.24903526 175.38591772 17.05938468 178.5217474 16.86671448 181.65740967 C16.74839006 183.58502984 16.63244907 185.51279847 16.51939392 187.44073486 C16.20015549 192.66374103 15.70723583 197.81486259 15 203 C12.78687336 199.38872592 12.58178769 196.12586422 12.28564453 191.94238281 C12.20694311 190.87947084 12.20694311 190.87947084 12.12665176 189.79508591 C11.95382008 187.43161137 11.79325684 185.06747031 11.6328125 182.703125 C11.51268962 181.02192423 11.3918757 179.34077271 11.27041626 177.65966797 C10.94556029 173.13083855 10.63169819 168.60130789 10.32011414 164.07154846 C10.05986635 160.30810136 9.79311947 156.54512629 9.52642822 152.7821312 C7.63374755 126.05472606 5.87879304 99.31870878 4.29345703 72.57128906 C3.58189818 60.65485547 2.75478737 48.76896598 1.66952515 36.88053894 C0.95890216 28.94042373 0.58209761 21.03144328 0.375 13.0625 C0.33632813 11.78310547 0.29765625 10.50371094 0.2578125 9.18554688 C0.16607521 6.12381487 0.08005799 3.06205548 0 0 Z " fill="#3F2B75" transform="translate(375,198)"/>
<path d="M0 0 C3.63 0 7.26 0 11 0 C11.10022461 1.43867432 11.20044922 2.87734863 11.30371094 4.35961914 C13.15093105 30.85684416 15.00988335 57.35320209 16.9276123 83.84542847 C17.09987327 86.2263558 17.27167234 88.6073166 17.44299316 90.98831177 C17.68323191 94.32434373 17.92532351 97.66023607 18.16796875 100.99609375 C18.23761337 101.96670746 18.307258 102.93732117 18.37901306 103.93734741 C18.820637 109.96966646 19.36695876 115.98475738 20 122 C20.33 122 20.66 122 21 122 C21.12561291 129.2855486 21.12561291 129.2855486 20.52075195 132.72583008 C19.98795756 136.07571548 19.74429141 139.33572532 19.5703125 142.72265625 C19.49805241 144.06267185 19.42561573 145.40267793 19.35302734 146.74267578 C19.31602722 147.44620178 19.2790271 148.14972778 19.24090576 148.87457275 C18.50266483 162.81018244 17.52611036 176.71759291 16.375 190.625 C16.30669983 191.45025177 16.23839966 192.27550354 16.16802979 193.12576294 C15.7839411 197.75096092 15.39438406 202.37566901 15 207 C14.67 207 14.34 207 14 207 C13.92483154 205.98204346 13.84966309 204.96408691 13.7722168 203.9152832 C13.47714655 199.92429955 13.1802965 195.93344955 12.88305664 191.94262695 C12.75761337 190.25548537 12.63257711 188.56831345 12.50805664 186.88110352 C11.81428113 177.48515623 11.09541336 168.09181657 10.31518555 158.70263672 C8.98906302 142.71484937 7.73378942 126.72729354 6.68359375 110.71875 C6.63158247 109.92608923 6.57957119 109.13342846 6.52598381 108.31674767 C6.10588758 101.89562069 5.69278404 95.47404716 5.28027344 89.0524292 C4.91820863 83.42013895 4.55341872 77.78803637 4.18359375 72.15625 C4.10828556 71.00893119 4.10828556 71.00893119 4.03145599 69.83843422 C3.28570149 58.5511979 2.36247539 47.29369217 1.19892883 36.04142761 C0.02778756 24.02305854 -0.1256481 12.06221797 0 0 Z " fill="#3F2B75" transform="translate(441,198)"/>
<path d="M0 0 C3.63 0 7.26 0 11 0 C11.12528076 1.21316895 11.25056152 2.42633789 11.37963867 3.67626953 C11.9807646 9.49266819 12.58374251 15.30887396 13.1875 21.125 C13.29915497 22.20064209 13.41080994 23.27628418 13.52584839 24.38452148 C15.2569974 41.04273038 17.04673039 57.69378975 18.8744812 74.34164429 C20.59709484 90.05286161 22.21095588 105.77311073 23.74438477 121.50390625 C23.86098198 122.69265099 23.86098198 122.69265099 23.97993469 123.90541077 C24.12285878 125.36428782 24.26449005 126.82329245 24.40446472 128.28245544 C24.70935108 131.39301512 25.07685528 134.45106508 25.60205078 137.53344727 C26.03872669 141.33734984 25.72260061 144.49719127 25.1640625 148.28125 C24.33278557 154.2519609 23.65716911 160.21171278 23.1484375 166.21875 C23.08360168 166.9823584 23.01876587 167.7459668 22.95196533 168.53271484 C22.75720101 170.85494722 22.56600033 173.17745535 22.375 175.5 C22.23988114 177.11330622 22.10446578 178.72658764 21.96875 180.33984375 C21.64243353 184.22628664 21.32006506 188.11303749 21 192 C20.34 192 19.68 192 19 192 C18.17996935 189.03163498 17.7596584 186.18196973 17.4909668 183.1159668 C17.40370331 182.13963287 17.31643982 181.16329895 17.22653198 180.15737915 C17.13501862 179.09868622 17.04350525 178.03999329 16.94921875 176.94921875 C16.85045441 175.83896332 16.75169006 174.72870789 16.64993286 173.58480835 C16.43741202 171.19565442 16.22615328 168.80638796 16.01602173 166.41702271 C15.46440803 160.15486212 14.90096253 153.89377551 14.3359375 147.6328125 C14.22310928 146.38252762 14.11028107 145.13224274 13.99403381 143.84407043 C13.00195841 132.90970232 11.93720958 121.98396742 10.8125 111.0625 C10.69495865 109.91145279 10.69495865 109.91145279 10.57504272 108.7371521 C9.88488318 101.99587829 9.16456153 95.26343898 8.31144047 88.54056644 C7.18699493 79.67633994 6.19623436 70.80147228 5.2734375 61.9140625 C5.19804371 61.19100292 5.12264992 60.46794334 5.04497147 59.72297287 C4.64761564 55.91202022 4.25213866 52.10087863 3.85839844 48.28955078 C3.45512881 44.38940266 3.04549219 40.48995023 2.63443565 36.59061623 C2.31526965 33.55214603 2.00072202 30.51321008 1.687397 27.47413254 C1.53839487 26.0364358 1.38772198 24.59891107 1.23524094 23.16157913 C0.41356556 15.39996808 -0.17624183 7.80647636 0 0 Z " fill="#412C75" transform="translate(240,198)"/>
<path d="M0 0 C1.90401138 1.90401138 2.93520439 3.33425686 3.19921875 6.046875 C3.1886578 8.03233273 3.09915043 10.0169914 3 12 C2.34 12 1.68 12 1 12 C-0.3271261 8.0186217 -0.06915913 4.14954773 0 0 Z " fill="#262255" transform="translate(258,378)"/>
</svg>
